<svg width="24" height="25" viewBox="0 0 24 25" fill="none" xmlns="http://www.w3.org/2000/svg">
<g clip-path="url(#clip0_1_906)">
<path d="M7.77656 19.1281C7.77656 19.2219 7.66875 19.2969 7.53281 19.2969C7.37812 19.3109 7.27031 19.2359 7.27031 19.1281C7.27031 19.0344 7.37813 18.9594 7.51406 18.9594C7.65469 18.9453 7.77656 19.0203 7.77656 19.1281ZM6.31875 18.9172C6.28594 19.0109 6.37969 19.1187 6.52031 19.1469C6.64219 19.1937 6.78281 19.1469 6.81094 19.0531C6.83906 18.9594 6.75 18.8516 6.60938 18.8094C6.4875 18.7766 6.35156 18.8234 6.31875 18.9172ZM8.39062 18.8375C8.25469 18.8703 8.16094 18.9594 8.175 19.0672C8.18906 19.1609 8.31094 19.2219 8.45156 19.1891C8.5875 19.1563 8.68125 19.0672 8.66719 18.9734C8.65312 18.8844 8.52656 18.8234 8.39062 18.8375ZM11.475 0.875C4.97344 0.875 0 5.81094 0 12.3125C0 17.5109 3.27188 21.9594 7.94531 23.525C8.54531 23.6328 8.75625 23.2625 8.75625 22.9578C8.75625 22.6672 8.74219 21.0641 8.74219 20.0797C8.74219 20.0797 5.46094 20.7828 4.77188 18.6828C4.77188 18.6828 4.2375 17.3187 3.46875 16.9672C3.46875 16.9672 2.39531 16.2312 3.54375 16.2453C3.54375 16.2453 4.71094 16.3391 5.35312 17.4547C6.37969 19.2641 8.1 18.7438 8.77031 18.4344C8.87813 17.6844 9.18281 17.1641 9.52031 16.8547C6.9 16.5641 4.25625 16.1844 4.25625 11.675C4.25625 10.3859 4.6125 9.73906 5.3625 8.91406C5.24063 8.60938 4.84219 7.35312 5.48438 5.73125C6.46406 5.42656 8.71875 6.99688 8.71875 6.99688C9.65625 6.73438 10.6641 6.59844 11.6625 6.59844C12.6609 6.59844 13.6688 6.73438 14.6063 6.99688C14.6063 6.99688 16.8609 5.42187 17.8406 5.73125C18.4828 7.35781 18.0844 8.60938 17.9625 8.91406C18.7125 9.74375 19.1719 10.3906 19.1719 11.675C19.1719 16.1984 16.4109 16.5594 13.7906 16.8547C14.2219 17.225 14.5875 17.9281 14.5875 19.0297C14.5875 20.6094 14.5734 22.5641 14.5734 22.9484C14.5734 23.2531 14.7891 23.6234 15.3844 23.5156C20.0719 21.9594 23.25 17.5109 23.25 12.3125C23.25 5.81094 17.9766 0.875 11.475 0.875ZM4.55625 17.0422C4.49531 17.0891 4.50938 17.1969 4.58906 17.2859C4.66406 17.3609 4.77187 17.3938 4.83281 17.3328C4.89375 17.2859 4.87969 17.1781 4.8 17.0891C4.725 17.0141 4.61719 16.9812 4.55625 17.0422ZM4.05 16.6625C4.01719 16.7234 4.06406 16.7984 4.15781 16.8453C4.23281 16.8922 4.32656 16.8781 4.35938 16.8125C4.39219 16.7516 4.34531 16.6766 4.25156 16.6297C4.15781 16.6016 4.08281 16.6156 4.05 16.6625ZM5.56875 18.3312C5.49375 18.3922 5.52187 18.5328 5.62969 18.6219C5.7375 18.7297 5.87344 18.7438 5.93437 18.6688C5.99531 18.6078 5.96719 18.4672 5.87344 18.3781C5.77031 18.2703 5.62969 18.2562 5.56875 18.3312ZM5.03438 17.6422C4.95938 17.6891 4.95938 17.8109 5.03438 17.9188C5.10938 18.0266 5.23594 18.0734 5.29688 18.0266C5.37188 17.9656 5.37188 17.8438 5.29688 17.7359C5.23125 17.6281 5.10938 17.5813 5.03438 17.6422Z" fill="#2C3E50"/>
</g>
<defs>
<clipPath id="clip0_1_906">
<rect width="23.25" height="24" fill="white" transform="translate(0 0.5)"/>
</clipPath>
</defs>
</svg>
