<svg width="24" height="25" viewBox="0 0 24 25" fill="none" xmlns="http://www.w3.org/2000/svg">
<g clip-path="url(#clip0_1_921)">
<path d="M1.44408 1.53516L14.724 0.554282C16.3553 0.414362 16.7743 0.508682 17.8001 1.25436L22.0392 4.24068C22.7383 4.75428 22.9711 4.8942 22.9711 5.4534V21.8317C22.9711 22.8582 22.5984 23.4654 21.2935 23.558L5.87208 24.4921C4.89288 24.5384 4.42656 24.3985 3.91368 23.745L0.792 19.6856C0.23208 18.9385 0 18.3793 0 17.7256V3.16716C0 2.32788 0.37272 1.62804 1.44408 1.53516Z" fill="white"/>
<path fill-rule="evenodd" clip-rule="evenodd" d="M14.724 0.554522L1.44408 1.5354C0.37272 1.62804 0 2.32812 0 3.16716V17.7256C0 18.3791 0.23208 18.9383 0.792 19.6856L3.91368 23.7448C4.42656 24.3983 4.89288 24.5384 5.87208 24.4919L21.2938 23.5583C22.5977 23.4654 22.9714 22.8582 22.9714 21.832V5.45364C22.9714 4.92324 22.7618 4.77036 22.145 4.31772L17.8001 1.25436C16.7746 0.508682 16.3553 0.414362 14.724 0.554282V0.554522ZM6.2208 5.18556C4.96152 5.27028 4.67592 5.28948 3.96072 4.70796L2.14248 3.26172C1.95768 3.07452 2.05056 2.841 2.51616 2.79444L15.2825 1.86156C16.3546 1.76796 16.9128 2.14164 17.3321 2.46804L19.5216 4.05444C19.6152 4.10172 19.848 4.38084 19.5679 4.38084L6.384 5.17452L6.2208 5.18556ZM4.75272 21.692V7.78812C4.75272 7.18092 4.9392 6.90084 5.49744 6.8538L20.64 5.96724C21.1536 5.92092 21.3857 6.24732 21.3857 6.85356V20.6648C21.3857 21.272 21.2921 21.7856 20.4538 21.832L5.96328 22.672C5.12496 22.7183 4.75296 22.4392 4.75296 21.692H4.75272ZM19.0567 8.53356C19.1496 8.95356 19.0567 9.37356 18.6367 9.42156L17.9383 9.56004V19.8256C17.3318 20.152 16.7736 20.3384 16.307 20.3384C15.5614 20.3384 15.3751 20.1049 14.8166 19.4056L10.2494 12.22V19.172L11.6942 19.4992C11.6942 19.4992 11.6942 20.3392 10.5286 20.3392L7.31496 20.5256C7.22136 20.3384 7.31496 19.8721 7.64064 19.7792L8.47992 19.5464V10.3544L7.3152 10.2601C7.2216 9.84012 7.4544 9.23364 8.1072 9.1866L11.5553 8.95452L16.3073 16.233V9.7938L15.096 9.6546C15.0024 9.14028 15.3751 8.7666 15.8407 8.721L19.0567 8.53356Z" fill="#2C3E50"/>
</g>
<defs>
<clipPath id="clip0_1_921">
<rect width="24" height="24" fill="white" transform="translate(0 0.5)"/>
</clipPath>
</defs>
</svg>
